<svg width="44" height="34" viewBox="0 0 44 34" fill="none" xmlns="http://www.w3.org/2000/svg">
<g clip-path="url(#clip0_6606_4151)">
<path fill-rule="evenodd" clip-rule="evenodd" d="M22.9645 3.56277C22.8898 3.87797 22.6963 4.15249 22.424 4.3295C22.1518 4.50651 21.8216 4.57246 21.5019 4.51369C21.1822 4.45492 20.8974 4.27594 20.7065 4.0138C20.5156 3.75166 20.4332 3.42642 20.4763 3.10542C20.5361 2.77672 20.7245 2.48515 21.0001 2.29485C21.2757 2.10455 21.6159 2.0311 21.9459 2.09067C22.2758 2.15023 22.5685 2.33793 22.7595 2.61247C22.9506 2.88702 23.0243 3.22591 22.9645 3.55461V3.56277ZM22.2799 0.320464C21.4742 0.170706 20.6417 0.344171 19.9638 0.803079C19.2858 1.26199 18.8174 1.96916 18.6604 2.77057V2.77057C18.539 3.569 18.7347 4.38314 19.2061 5.04013C19.6774 5.69712 20.3873 6.1452 21.1849 6.28924C21.9825 6.43328 22.8051 6.26192 23.478 5.81156C24.1508 5.3612 24.621 4.6673 24.7886 3.8772V3.8772C24.9279 3.07433 24.7422 2.24916 24.2719 1.58249C23.8017 0.915817 23.0854 0.462 22.2799 0.320464V0.320464Z" fill="#6B2EB8"/>
<path fill-rule="evenodd" clip-rule="evenodd" d="M36.8839 25.732C35.0765 27.7481 32.8457 29.343 30.3499 30.4035C31.5773 29.1897 32.6436 27.8242 33.5226 26.3404C35.3356 23.2712 36.291 19.7745 36.2895 16.2133C36.2887 15.2885 36.2243 14.3648 36.0968 13.4488V13.4488C36.601 13.2446 37.1175 13.0404 37.6422 12.9016C38.853 12.484 40.1144 12.23 41.3929 12.1461C41.438 12.6525 41.4626 13.2487 41.4626 13.7795C41.4601 18.1884 39.8305 22.4424 36.8839 25.732ZM23.7667 18.3816C23.8943 18.7401 23.9334 19.124 23.8806 19.5007C23.8278 19.8774 23.6846 20.2359 23.4633 20.5459C23.2698 20.8295 23.0103 21.0622 22.7069 21.2243C22.4036 21.3864 22.0654 21.4731 21.7212 21.477C21.3798 21.4705 21.0449 21.3826 20.7446 21.2206C20.4444 21.0586 20.1875 20.8272 19.9955 20.5459C19.7749 20.2356 19.6325 19.8769 19.5804 19.5002C19.5283 19.1235 19.5681 18.7398 19.6963 18.3816C20.2295 17.0576 20.9174 15.8007 21.7458 14.6371C22.5642 15.7949 23.2426 17.0449 23.7667 18.3612V18.3816ZM9.91987 26.3649C10.7977 27.8483 11.8641 29.2126 13.0926 30.4239C10.5962 29.3664 8.36504 27.7726 6.55859 25.7565C3.61161 22.4642 1.98334 18.207 1.98397 13.7959C1.98397 13.2609 2.00857 12.6606 2.04956 12.1625C3.32943 12.2459 4.59228 12.5 5.80435 12.9179C6.32494 13.0772 6.84143 13.2609 7.34562 13.461C7.21811 14.3771 7.15373 15.3007 7.15296 16.2256C7.15296 19.784 8.10827 23.2777 9.91987 26.3445V26.3649ZM43.3605 12.2931C43.3351 12.1402 43.3009 11.9889 43.258 11.8399C43.2211 11.7092 43.1801 11.5785 43.135 11.4315C43.1225 11.3885 43.1074 11.3462 43.0899 11.3049C43.0114 10.9716 42.8221 10.6744 42.5527 10.4617C42.2834 10.2489 41.9498 10.1331 41.606 10.133H41.5159C41.4708 10.133 41.4216 10.133 41.3724 10.133L40.8805 10.1779H40.8231C39.0691 10.3635 37.3467 10.7753 35.6992 11.4029V11.3498L35.65 11.1497C35.3009 9.82179 34.8132 8.53391 34.1948 7.30716V7.28266L34.0596 7.0254L33.7357 6.42104L33.498 6.01269C33.3608 5.83043 33.1824 5.68294 32.9773 5.58219C32.7722 5.48145 32.5461 5.43027 32.3174 5.43283C32.1794 5.43407 32.0419 5.4505 31.9075 5.48183L31.432 5.60434H31.3746C27.6905 6.59275 24.3605 8.59533 21.7663 11.3825V11.3825C19.1712 8.59734 15.8414 6.5963 12.158 5.60842H12.1006C11.9407 5.5635 11.785 5.52675 11.621 5.48592C11.4866 5.45432 11.3491 5.43788 11.2111 5.43691C11.0323 5.43664 10.8548 5.46703 10.6864 5.52675V5.52675C10.4244 5.62483 10.1956 5.7947 10.0264 6.01677V6.01677L9.78869 6.42512L9.46486 7.0254L9.3173 7.30716C8.69887 8.53531 8.21115 9.82455 7.86211 11.1538L7.81292 11.3539V11.4029C6.16557 10.7748 4.44312 10.3629 2.68902 10.1779H2.63163L2.13974 10.133H1.91019C1.56575 10.1322 1.2312 10.2476 0.961009 10.4604C0.690819 10.6732 0.50091 10.9709 0.422209 11.3049V11.3049L0.377118 11.4274C0.332028 11.554 0.291036 11.6847 0.258243 11.8154C0.212705 11.9639 0.177103 12.1154 0.151668 12.2686C0.0555521 12.8079 0.00481884 13.3543 0 13.902C0.0312327 18.7677 1.84117 23.4553 5.0911 27.0877C8.32682 30.7184 12.7604 33.0752 17.5893 33.7316H17.8189C17.8503 33.7342 17.8819 33.73 17.9116 33.7195C17.9413 33.7089 17.9684 33.6922 17.991 33.6703C18.0056 33.6559 18.0172 33.6387 18.0249 33.6198C18.0327 33.6008 18.0365 33.5805 18.0361 33.5601V32.0124C18.0189 31.8997 17.964 31.7961 17.8804 31.7184V31.7184L16.2612 30.4933C14.4152 29.0769 12.8594 27.3205 11.6784 25.3195C10.0933 22.6324 9.23712 19.5807 9.194 16.4642C9.15088 13.3477 9.92228 10.2737 11.4324 7.54401L11.9243 7.67876L12.2318 7.7686C15.3592 8.75588 18.1691 10.5492 20.3767 12.9669L20.3357 13.02C19.2712 14.438 18.3988 15.9894 17.741 17.6344V17.6589C17.4984 18.3246 17.4213 19.039 17.5163 19.7408C17.6112 20.4427 17.8754 21.1113 18.2862 21.6893C18.6624 22.2344 19.1643 22.6817 19.7499 22.9936C20.3354 23.3055 20.9876 23.473 21.6515 23.482H21.7663C22.431 23.4736 23.0839 23.3065 23.6703 22.9945C24.2566 22.6826 24.7592 22.2349 25.1358 21.6893C25.5466 21.1113 25.8107 20.4427 25.9057 19.7408C26.0006 19.039 25.9235 18.3246 25.681 17.6589V17.6303C25.0215 15.9874 24.1492 14.4375 23.0862 13.02V13.02L23.0452 12.9669C25.2543 10.5491 28.0656 8.75576 31.1943 7.7686C31.2886 7.74002 31.678 7.60934 31.8337 7.57259L31.9854 7.53176C33.4985 10.2625 34.2718 13.3387 34.2294 16.4576C34.187 19.5764 33.3303 22.6306 31.7436 25.3195C30.5614 27.3197 29.0058 29.0759 27.1608 30.4933L25.5416 31.7184C25.4584 31.7959 25.4048 31.8999 25.3899 32.0124V33.5601C25.3896 33.5805 25.3934 33.6008 25.4011 33.6198C25.4089 33.6387 25.4204 33.6559 25.435 33.6703C25.4577 33.6922 25.4848 33.7089 25.5145 33.7195C25.5442 33.73 25.5758 33.7342 25.6072 33.7316H25.8367C30.6958 33.0915 35.1606 30.7284 38.4128 27.0754C41.6628 23.4431 43.4727 18.7555 43.5039 13.8898C43.5006 13.3478 43.4526 12.8069 43.3605 12.2727V12.2931Z" fill="#6B2EB8"/>
</g>
<defs>
<clipPath id="clip0_6606_4151">
<rect width="43.5039" height="33.4644" fill="white" transform="translate(0 0.267822)"/>
</clipPath>
</defs>
</svg>
